<?xml version="1.0" standalone="no"?><!DOCTYPE svg PUBLIC "-//W3C//DTD SVG 1.1//EN" "http://www.w3.org/Graphics/SVG/1.1/DTD/svg11.dtd"><svg t="1533723224269" class="icon" style="" viewBox="0 0 1025 1024" version="1.1" xmlns="http://www.w3.org/2000/svg" p-id="7477" xmlns:xlink="http://www.w3.org/1999/xlink" width="200.1953125" height="200"><defs><style type="text/css"></style></defs><path d="M977.966724 712.514678h-74.833229V511.6802a45.411618 45.411618 0 0 0-45.411618-46.051218H541.759354V310.206121h75.47283a46.051218 46.051218 0 0 0 44.772017-46.690818V46.690818a45.411618 45.411618 0 0 0-44.772017-46.690818h-211.068083a45.411618 45.411618 0 0 0-44.772017 46.051218v217.464085a46.051218 46.051218 0 0 0 44.772017 46.690818h75.47283v154.783261H165.674407a45.411618 45.411618 0 0 0-45.411618 46.690818v201.474079H45.42956a46.051218 46.051218 0 0 0-45.411618 46.690818v216.184884a46.051218 46.051218 0 0 0 45.411618 47.330419H255.858042a46.051218 46.051218 0 0 0 45.411618-46.690818v-217.464085a46.051218 46.051218 0 0 0-45.411618-46.690819H180.385213V526.391006h301.251718v186.123672H406.164101a45.411618 45.411618 0 0 0-44.772017 46.690819v216.184884a46.051218 46.051218 0 0 0 44.772017 46.690818h211.068083a46.051218 46.051218 0 0 0 44.772017-46.690818v-216.184884a45.411618 45.411618 0 0 0-44.772017-46.690819H541.759354V526.391006h301.251718v186.123672H767.538242a46.051218 46.051218 0 0 0-45.411617 46.690819v216.184884a46.051218 46.051218 0 0 0 45.411617 47.970019h210.428482a46.051218 46.051218 0 0 0 45.411618-46.690818v-217.464085a46.051218 46.051218 0 0 0-45.411618-46.690819zM421.514507 63.960025h180.367271v184.204872H421.514507zM240.507636 774.555903v184.844472H60.140366v-185.484073z m361.374142 184.844472H421.514507v-185.484073h180.367271z m361.374141 0h-181.006871v-185.484073h181.006871z" fill="#999999" p-id="7478"></path></svg>